<svg xmlns="http://www.w3.org/2000/svg" version="1.1" xmlns:xlink="http://www.w3.org/1999/xlink" xmlns:svgjs="http://svgjs.com/svgjs" width="1440" height="560" preserveAspectRatio="none" viewBox="0 0 1440 560"><g mask="url(&quot;#SvgjsMask1073&quot;)" fill="none"><path d="M1050.283,260.642C1079.041,260.22,1105.67,244.401,1119.186,219.014C1131.975,194.992,1126.454,166.68,1112.86,143.104C1099.25,119.501,1077.527,99.878,1050.283,99.516C1022.501,99.147,998.99,117.541,984.76,141.404C970.124,165.949,964.028,196.042,977.79,221.087C991.999,246.944,1020.782,261.074,1050.283,260.642" fill="rgba(127, 90, 240, 0.4)" class="triangle-float2"></path><path d="M312.058,628.706C358.945,630.633,405.743,611.392,430.228,571.359C455.725,529.672,456.211,476.316,430.789,434.583C406.293,394.37,359.045,374.304,312.058,377.368C269.854,380.12,237.925,411.503,217.426,448.497C197.675,484.142,190.646,526.213,209.592,562.292C229.874,600.916,268.47,626.915,312.058,628.706" fill="rgba(127, 90, 240, 0.4)" class="triangle-float1"></path><path d="M139.356,87.064C163.482,86.893,184.636,72.519,196.924,51.756C209.467,30.562,213.334,4.246,200.979,-17.059C188.659,-38.302,163.912,-47.773,139.356,-47.509C115.303,-47.251,92.2,-36.481,79.985,-15.759C67.586,5.276,68.146,31.438,80.356,52.583C92.565,73.726,114.942,87.237,139.356,87.064" fill="rgba(127, 90, 240, 0.4)" class="triangle-float3"></path><path d="M1122.53,679.542C1168.493,679.907,1220.605,674.878,1243.167,634.833C1265.49,595.212,1240.131,549.792,1218.024,510.05C1194.984,468.631,1169.775,421.739,1122.53,417.96C1070.363,413.787,1021.399,446.382,996.322,492.317C972.2,536.502,977.025,591.202,1005.164,632.945C1030.381,670.354,1077.416,679.184,1122.53,679.542" fill="rgba(127, 90, 240, 0.4)" class="triangle-float3"></path><path d="M1337.706,365.983C1363.327,365.696,1389.923,357.567,1402.504,335.245C1414.91,313.233,1408.066,286.367,1394.644,264.96C1382.148,245.029,1361.216,232.717,1337.706,231.892C1312.546,231.009,1287.005,239.523,1273.395,260.703C1258.701,283.571,1256.175,313.527,1270.345,336.724C1284.023,359.115,1311.47,366.277,1337.706,365.983" fill="rgba(127, 90, 240, 0.4)" class="triangle-float3"></path><path d="M589.489,106.96C602.725,105.924,613.009,96.426,619.248,84.707C625.071,73.769,625.302,61.128,619.797,50.027C613.527,37.384,603.601,24.617,589.489,24.696C575.458,24.775,566.965,38.321,559.766,50.364C552.283,62.882,543.614,77.184,550.395,90.096C557.468,103.563,574.324,108.147,589.489,106.96" fill="rgba(127, 90, 240, 0.4)" class="triangle-float1"></path></g><defs><mask id="SvgjsMask1073"><rect width="1440" height="560" fill="#ffffff"></rect></mask><style>
            @keyframes float1 {
                0%{transform: translate(0, 0)}
                50%{transform: translate(-10px, 0)}
                100%{transform: translate(0, 0)}
            }

            .triangle-float1 {
                animation: float1 5s infinite;
            }

            @keyframes float2 {
                0%{transform: translate(0, 0)}
                50%{transform: translate(-5px, -5px)}
                100%{transform: translate(0, 0)}
            }

            .triangle-float2 {
                animation: float2 4s infinite;
            }

            @keyframes float3 {
                0%{transform: translate(0, 0)}
                50%{transform: translate(0, -10px)}
                100%{transform: translate(0, 0)}
            }

            .triangle-float3 {
                animation: float3 6s infinite;
            }
        </style></defs></svg>