<svg xmlns="http://www.w3.org/2000/svg" version="1.1" xmlns:xlink="http://www.w3.org/1999/xlink" xmlns:svgjs="http://svgjs.com/svgjs" width="1440" height="560" preserveAspectRatio="none" viewBox="0 0 1440 560"><g mask="url(&quot;#SvgjsMask1048&quot;)" fill="none"><path d="M516.771,503.101C554.042,503.926,588.617,484.055,607.799,452.089C627.568,419.146,629.038,378.998,611.868,344.629C592.555,305.97,559.967,271.146,516.771,269.877C471.842,268.558,430.691,298.108,411.481,338.744C394.463,374.743,410.988,414.677,432.467,448.206C451.854,478.47,480.839,502.305,516.771,503.101" fill="rgba(127, 90, 240, 0.4)" class="triangle-float3"></path><path d="M1499.418,272.151C1551.769,273.781,1604.432,250.301,1629.335,204.224C1653.277,159.925,1635.777,108.616,1611.71,64.385C1586.156,17.422,1552.881,-34.979,1499.418,-34.539C1446.357,-34.102,1414.192,18.837,1390.285,66.209C1369.271,107.849,1360.96,155.333,1382.8,196.546C1406.049,240.419,1449.789,270.605,1499.418,272.151" fill="rgba(127, 90, 240, 0.4)" class="triangle-float3"></path><path d="M1253.898,573.202C1292.961,574.637,1336.163,567.493,1355.963,533.789C1375.937,499.788,1363.126,457.245,1341.322,424.388C1321.952,395.199,1288.914,381.004,1253.898,379.986C1216.658,378.903,1176.657,387.261,1157.203,419.035C1137.07,451.917,1143.562,494.074,1164.048,526.737C1183.25,557.352,1217.783,571.875,1253.898,573.202" fill="rgba(127, 90, 240, 0.4)" class="triangle-float2"></path><path d="M79.677,531.702C131.178,532.24,187.69,520.652,212.42,475.474C236.528,431.432,210.776,381.119,186.011,337.443C160.757,292.905,130.828,243.616,79.677,241.366C25.864,238.999,-18.117,280.185,-44.195,327.317C-69.36,372.798,-75.286,428.296,-48.345,472.748C-22.246,515.81,29.326,531.176,79.677,531.702" fill="rgba(127, 90, 240, 0.4)" class="triangle-float3"></path><path d="M752.556,191.46C773.48,192.232,794.895,186.553,806.831,169.35C820.575,149.542,827.493,122.554,814.422,102.296C801.991,83.03,775.484,85.214,752.556,85.232C729.676,85.25,702.545,82.723,690.856,102.392C679.044,122.267,691.633,146.582,704.799,165.587C715.849,181.538,733.164,190.745,752.556,191.46" fill="rgba(127, 90, 240, 0.4)" class="triangle-float1"></path><path d="M1415.331,261.865C1457.866,260.31,1494.05,235.822,1517.214,200.114C1543.083,160.235,1562.62,111.106,1540.381,69.094C1517.092,25.1,1465.088,9.086,1415.331,7.646C1362.351,6.113,1303.577,15.57,1277.085,61.476C1250.599,107.373,1269.578,164.451,1299.669,208.069C1325.548,245.581,1369.788,263.53,1415.331,261.865" fill="rgba(127, 90, 240, 0.4)" class="triangle-float1"></path></g><defs><mask id="SvgjsMask1048"><rect width="1440" height="560" fill="#ffffff"></rect></mask><style>
            @keyframes float1 {
                0%{transform: translate(0, 0)}
                50%{transform: translate(-10px, 0)}
                100%{transform: translate(0, 0)}
            }

            .triangle-float1 {
                animation: float1 5s infinite;
            }

            @keyframes float2 {
                0%{transform: translate(0, 0)}
                50%{transform: translate(-5px, -5px)}
                100%{transform: translate(0, 0)}
            }

            .triangle-float2 {
                animation: float2 4s infinite;
            }

            @keyframes float3 {
                0%{transform: translate(0, 0)}
                50%{transform: translate(0, -10px)}
                100%{transform: translate(0, 0)}
            }

            .triangle-float3 {
                animation: float3 6s infinite;
            }
        </style></defs></svg>